<?xml version="1.0" encoding="UTF-8" standalone="no"?>
<!DOCTYPE svg PUBLIC "-//W3C//DTD SVG 1.1//EN"
 "http://www.w3.org/Graphics/SVG/1.1/DTD/svg11.dtd">
<!-- Generated by graphviz version 2.26.3 (20100126.1600)
 -->
<!-- Title: G Pages: 1 -->
<svg width="1168pt" height="2688pt"
 viewBox="0.00 0.00 1168.00 2688.00" xmlns="http://www.w3.org/2000/svg" xmlns:xlink="http://www.w3.org/1999/xlink">
<g id="graph1" class="graph" transform="scale(1 1) rotate(0) translate(4 2684)">
<title>G</title>
<polygon fill="white" stroke="white" points="-4,5 -4,-2684 1165,-2684 1165,5 -4,5"/>
<g id="graph2" class="cluster"><title>cluster_default</title>
<polyline fill="none" stroke="none" points="266,-514 1140,-514 "/>
<path fill="none" stroke="none" d="M1140,-514C1146,-514 1152,-520 1152,-526"/>
<polyline fill="none" stroke="none" points="1152,-526 1152,-2660 "/>
<path fill="none" stroke="none" d="M1152,-2660C1152,-2666 1146,-2672 1140,-2672"/>
<polyline fill="none" stroke="none" points="1140,-2672 266,-2672 "/>
<path fill="none" stroke="none" d="M266,-2672C260,-2672 254,-2666 254,-2660"/>
<polyline fill="none" stroke="none" points="254,-2660 254,-526 "/>
<path fill="none" stroke="none" d="M254,-526C254,-520 260,-514 266,-514"/>
</g>
<!-- \\YuppGISConventions -->
<g id="node2" class="node"><title>\\YuppGISConventions</title>
<a xlink:href="db_core_config_yuppgis.core.config.YuppGISConventions.class.html" xlink:title="YuppGISConventions" target="_parent">
<polygon fill="none" stroke="black" points="1140,-1638 1002,-1638 1002,-1602 1140,-1602 1140,-1638"/>
<text text-anchor="middle" x="1071" y="-1617.1" font-family="Courier New" font-size="11.00">YuppGISConventions</text>
</a>
</g>
<!-- \\YuppConventions -->
<g id="node57" class="node"><title>\\YuppConventions</title>
<ellipse fill="none" stroke="black" cx="808" cy="-488" rx="98.9949" ry="18.3848"/>
<text text-anchor="middle" x="808" y="-484.4" font-family="Times Roman,serif" font-size="14.00" fill="gray">\YuppConventions</text>
</g>
<!-- \\YuppGISConventions&#45;&gt;\\YuppConventions -->
<g id="edge3" class="edge"><title>\\YuppGISConventions&#45;&gt;\\YuppConventions</title>
<path fill="none" stroke="black" d="M1006.76,-1601.87C1003.48,-1599.3 1000.51,-1596.36 998,-1593 853.675,-1399.75 1086.2,-690.308 926,-510 921.832,-505.309 917.013,-501.418 911.752,-498.202"/>
<polygon fill="none" stroke="black" points="913.008,-494.911 902.52,-493.407 909.781,-501.123 913.008,-494.911"/>
</g>
<!-- \\YuppGISConfig -->
<g id="node3" class="node"><title>\\YuppGISConfig</title>
<a xlink:href="db_core_config_yuppgis.core.config.YuppGISConfig.class.html" xlink:title="YuppGISConfig" target="_parent">
<polygon fill="none" stroke="black" points="1123,-2610 1019,-2610 1019,-2574 1123,-2574 1123,-2610"/>
<text text-anchor="middle" x="1071" y="-2589.1" font-family="Courier New" font-size="11.00">YuppGISConfig</text>
</a>
</g>
<!-- \\YuppGISTestCase -->
<g id="node4" class="node"><title>\\YuppGISTestCase</title>
<a xlink:href="db_core_testing_yuppgis.core.testing.YuppGISTestCase.class.html" xlink:title="«abstract»&lt;br/&gt;YuppGISTestCase" target="_parent">
<polygon fill="none" stroke="black" points="1130,-1584 1012,-1584 1012,-1548 1130,-1548 1130,-1584"/>
<text text-anchor="start" x="1037" y="-1571.43" font-family="Courier New" font-size="11.00">«abstract»</text>
<text text-anchor="start" x="1020" y="-1558.23" font-family="Courier New" font-size="11.00">YuppGISTestCase</text>
</a>
</g>
<!-- \\TestCase -->
<g id="node59" class="node"><title>\\TestCase</title>
<ellipse fill="none" stroke="black" cx="808" cy="-434" rx="57.9828" ry="18.3848"/>
<text text-anchor="middle" x="808" y="-430.4" font-family="Times Roman,serif" font-size="14.00" fill="gray">\TestCase</text>
</g>
<!-- \\YuppGISTestCase&#45;&gt;\\TestCase -->
<g id="edge5" class="edge"><title>\\YuppGISTestCase&#45;&gt;\\TestCase</title>
<path fill="none" stroke="black" d="M1011.39,-1551.14C1006.25,-1547.86 1001.64,-1543.87 998,-1539 854.309,-1346.66 1081.82,-643.657 926,-461 913.572,-446.431 895.04,-438.813 876.326,-435.043"/>
<polygon fill="none" stroke="black" points="876.691,-431.556 866.252,-433.365 875.541,-438.46 876.691,-431.556"/>
</g>
<!-- \\KMLUtilities -->
<g id="node5" class="node"><title>\\KMLUtilities</title>
<a xlink:href="db_core_gis_yuppgis.core.gis.KMLUtilities.class.html" xlink:title="KMLUtilities" target="_parent">
<polygon fill="none" stroke="black" points="1120,-2502 1022,-2502 1022,-2466 1120,-2466 1120,-2502"/>
<text text-anchor="middle" x="1071" y="-2481.1" font-family="Courier New" font-size="11.00">KMLUtilities</text>
</a>
</g>
<!-- \\MapParams -->
<g id="node6" class="node"><title>\\MapParams</title>
<a xlink:href="db_core_gis_yuppgis.core.gis.MapParams.class.html" xlink:title="MapParams" target="_parent">
<polygon fill="none" stroke="black" points="1109,-2448 1033,-2448 1033,-2412 1109,-2412 1109,-2448"/>
<text text-anchor="middle" x="1071" y="-2427.1" font-family="Courier New" font-size="11.00">MapParams</text>
</a>
</g>
<!-- \\GISHelpers -->
<g id="node7" class="node"><title>\\GISHelpers</title>
<a xlink:href="db_core_gis_yuppgis.core.gis.GISHelpers.class.html" xlink:title="GISHelpers" target="_parent">
<polygon fill="none" stroke="black" points="1113,-2394 1029,-2394 1029,-2358 1113,-2358 1113,-2394"/>
<text text-anchor="middle" x="1071" y="-2373.1" font-family="Courier New" font-size="11.00">GISHelpers</text>
</a>
</g>
<!-- \\Icon -->
<g id="node8" class="node"><title>\\Icon</title>
<a xlink:href="db_core_basic_ui_yuppgis.core.basic.ui.Icon.class.html" xlink:title="Icon" target="_parent">
<polygon fill="none" stroke="black" points="1098,-2556 1044,-2556 1044,-2520 1098,-2520 1098,-2556"/>
<text text-anchor="middle" x="1071" y="-2535.1" font-family="Courier New" font-size="11.00">Icon</text>
</a>
</g>
<!-- \\UIProperty -->
<g id="node10" class="node"><title>\\UIProperty</title>
<a xlink:href="db_core_basic_ui_yuppgis.core.basic.ui.UIProperty.class.html" xlink:title="UIProperty" target="_parent">
<polygon fill="none" stroke="black" points="850,-2556 766,-2556 766,-2520 850,-2520 850,-2556"/>
<text text-anchor="middle" x="808" y="-2535.1" font-family="Courier New" font-size="11.00">UIProperty</text>
</a>
</g>
<!-- \\Icon&#45;&gt;\\UIProperty -->
<g id="edge7" class="edge"><title>\\Icon&#45;&gt;\\UIProperty</title>
<path fill="none" stroke="black" d="M1043.84,-2538C1000.69,-2538 915.696,-2538 860.398,-2538"/>
<polygon fill="none" stroke="black" points="860.096,-2534.5 850.096,-2538 860.096,-2541.5 860.096,-2534.5"/>
</g>
<!-- \\Border -->
<g id="node9" class="node"><title>\\Border</title>
<a xlink:href="db_core_basic_ui_yuppgis.core.basic.ui.Border.class.html" xlink:title="Border" target="_parent">
<polygon fill="none" stroke="black" points="1099,-2340 1043,-2340 1043,-2304 1099,-2304 1099,-2340"/>
<text text-anchor="middle" x="1071" y="-2319.1" font-family="Courier New" font-size="11.00">Border</text>
</a>
</g>
<!-- \\Border&#45;&gt;\\UIProperty -->
<g id="edge9" class="edge"><title>\\Border&#45;&gt;\\UIProperty</title>
<path fill="none" stroke="black" d="M1042.3,-2329.48C1028.28,-2333.9 1011.55,-2340.34 998,-2349 926.255,-2394.84 860,-2471.71 828.043,-2511.83"/>
<polygon fill="none" stroke="black" points="825.195,-2509.79 821.754,-2519.81 830.693,-2514.12 825.195,-2509.79"/>
</g>
<!-- \\Color -->
<g id="node11" class="node"><title>\\Color</title>
<a xlink:href="db_core_basic_ui_yuppgis.core.basic.ui.UIProperty.class.html" xlink:title="Color" target="_parent">
<polygon fill="none" stroke="black" points="1098,-2232 1044,-2232 1044,-2196 1098,-2196 1098,-2232"/>
<text text-anchor="middle" x="1071" y="-2211.1" font-family="Courier New" font-size="11.00">Color</text>
</a>
</g>
<!-- \\Background -->
<g id="node12" class="node"><title>\\Background</title>
<a xlink:href="db_core_basic_ui_yuppgis.core.basic.ui.Background.class.html" xlink:title="Background" target="_parent">
<polygon fill="none" stroke="black" points="1113,-2664 1029,-2664 1029,-2628 1113,-2628 1113,-2664"/>
<text text-anchor="middle" x="1071" y="-2643.1" font-family="Courier New" font-size="11.00">Background</text>
</a>
</g>
<!-- \\Background&#45;&gt;\\UIProperty -->
<g id="edge11" class="edge"><title>\\Background&#45;&gt;\\UIProperty</title>
<path fill="none" stroke="black" d="M1028.79,-2630.79C1018.67,-2627.03 1007.92,-2622.95 998,-2619 950.237,-2600 896.388,-2576.88 858.246,-2560.21"/>
<polygon fill="none" stroke="black" points="859.465,-2556.92 848.901,-2556.12 856.657,-2563.34 859.465,-2556.92"/>
</g>
<!-- \\Polygon -->
<g id="node13" class="node"><title>\\Polygon</title>
<a xlink:href="db_core_basic_yuppgis.core.basic.Polygon.class.html" xlink:title="Polygon" target="_parent">
<polygon fill="none" stroke="black" points="840,-2340 776,-2340 776,-2304 840,-2304 840,-2340"/>
<text text-anchor="middle" x="808" y="-2319.1" font-family="Courier New" font-size="11.00">Polygon</text>
</a>
</g>
<!-- \\Surface -->
<g id="node16" class="node"><title>\\Surface</title>
<a xlink:href="db_core_basic_yuppgis.core.basic.Surface.class.html" xlink:title="«abstract»&lt;br/&gt;Surface" target="_parent">
<polygon fill="none" stroke="black" points="554,-2326 470,-2326 470,-2290 554,-2290 554,-2326"/>
<text text-anchor="start" x="478" y="-2313.43" font-family="Courier New" font-size="11.00">«abstract»</text>
<text text-anchor="start" x="488" y="-2300.23" font-family="Courier New" font-size="11.00">Surface</text>
</a>
</g>
<!-- \\Polygon&#45;&gt;\\Surface -->
<g id="edge13" class="edge"><title>\\Polygon&#45;&gt;\\Surface</title>
<path fill="none" stroke="black" d="M775.759,-2320.48C725.051,-2318.08 626.142,-2313.4 564.906,-2310.5"/>
<polygon fill="none" stroke="black" points="564.827,-2306.99 554.673,-2310.02 564.496,-2313.99 564.827,-2306.99"/>
</g>
<!-- \\DataLayer -->
<g id="node14" class="node"><title>\\DataLayer</title>
<a xlink:href="db_core_basic_yuppgis.core.basic.DataLayer.class.html" xlink:title="DataLayer" target="_parent">
<polygon fill="none" stroke="black" points="1109,-2016 1033,-2016 1033,-1980 1109,-1980 1109,-2016"/>
<text text-anchor="middle" x="1071" y="-1995.1" font-family="Courier New" font-size="11.00">DataLayer</text>
</a>
</g>
<!-- \\Observable -->
<g id="node31" class="node"><title>\\Observable</title>
<a xlink:href="db_core_basic_yuppgis.core.basic.Observable.class.html" xlink:title="«abstract»&lt;br/&gt;Observable" target="_parent">
<polygon fill="none" stroke="black" points="850,-1962 766,-1962 766,-1926 850,-1926 850,-1962"/>
<text text-anchor="start" x="774" y="-1949.43" font-family="Courier New" font-size="11.00">«abstract»</text>
<text text-anchor="start" x="774" y="-1936.23" font-family="Courier New" font-size="11.00">Observable</text>
</a>
</g>
<!-- \\DataLayer&#45;&gt;\\Observable -->
<g id="edge15" class="edge"><title>\\DataLayer&#45;&gt;\\Observable</title>
<path fill="none" stroke="black" d="M1032.48,-1990.09C986.997,-1980.75 911.143,-1965.18 860.36,-1954.75"/>
<polygon fill="none" stroke="black" points="861.054,-1951.32 850.555,-1952.74 859.646,-1958.18 861.054,-1951.32"/>
</g>
<!-- \\LineString -->
<g id="node15" class="node"><title>\\LineString</title>
<a xlink:href="db_core_basic_yuppgis.core.basic.LineString.class.html" xlink:title="LineString" target="_parent">
<polygon fill="none" stroke="black" points="850,-2124 766,-2124 766,-2088 850,-2088 850,-2124"/>
<text text-anchor="middle" x="808" y="-2103.1" font-family="Courier New" font-size="11.00">LineString</text>
</a>
</g>
<!-- \\Curve -->
<g id="node20" class="node"><title>\\Curve</title>
<a xlink:href="db_core_basic_yuppgis.core.basic.Curve.class.html" xlink:title="«abstract»&lt;br/&gt;Curve" target="_parent">
<polygon fill="none" stroke="black" points="554,-2130 470,-2130 470,-2094 554,-2094 554,-2130"/>
<text text-anchor="start" x="478" y="-2117.43" font-family="Courier New" font-size="11.00">«abstract»</text>
<text text-anchor="start" x="495" y="-2104.23" font-family="Courier New" font-size="11.00">Curve</text>
</a>
</g>
<!-- \\LineString&#45;&gt;\\Curve -->
<g id="edge17" class="edge"><title>\\LineString&#45;&gt;\\Curve</title>
<path fill="none" stroke="black" d="M765.905,-2106.85C713.164,-2107.92 622.744,-2109.76 565.247,-2110.92"/>
<polygon fill="none" stroke="black" points="564.838,-2107.43 554.911,-2111.13 564.979,-2114.43 564.838,-2107.43"/>
</g>
<!-- \\Geometry -->
<g id="node18" class="node"><title>\\Geometry</title>
<a xlink:href="db_core_basic_yuppgis.core.basic.Geometry.class.html" xlink:title="Geometry" target="_parent">
<polygon fill="none" stroke="black" points="333,-2191 263,-2191 263,-2155 333,-2155 333,-2191"/>
<text text-anchor="middle" x="298" y="-2170.1" font-family="Courier New" font-size="11.00">Geometry</text>
</a>
</g>
<!-- \\Surface&#45;&gt;\\Geometry -->
<g id="edge19" class="edge"><title>\\Surface&#45;&gt;\\Geometry</title>
<path fill="none" stroke="black" d="M472.602,-2289.94C452.255,-2280.11 427.296,-2267.27 406,-2254 378.431,-2236.82 349.057,-2214.5 327.913,-2197.64"/>
<polygon fill="none" stroke="black" points="329.939,-2194.78 319.952,-2191.24 325.553,-2200.23 329.939,-2194.78"/>
</g>
<!-- \\Point -->
<g id="node17" class="node"><title>\\Point</title>
<a xlink:href="db_core_basic_yuppgis.core.basic.Point.class.html" xlink:title="Point" target="_parent">
<polygon fill="none" stroke="black" points="539,-2245 485,-2245 485,-2209 539,-2209 539,-2245"/>
<text text-anchor="middle" x="512" y="-2224.1" font-family="Courier New" font-size="11.00">Point</text>
</a>
</g>
<!-- \\Point&#45;&gt;\\Geometry -->
<g id="edge21" class="edge"><title>\\Point&#45;&gt;\\Geometry</title>
<path fill="none" stroke="black" d="M484.897,-2220.16C449.391,-2211.2 386.616,-2195.36 343.698,-2184.53"/>
<polygon fill="none" stroke="black" points="344.335,-2181.08 333.783,-2182.03 342.623,-2187.87 344.335,-2181.08"/>
</g>
<!-- \\PersistentObject -->
<g id="node69" class="node"><title>\\PersistentObject</title>
<ellipse fill="none" stroke="black" cx="95" cy="-1326" rx="94.7523" ry="18.3848"/>
<text text-anchor="middle" x="95" y="-1322.4" font-family="Times Roman,serif" font-size="14.00" fill="gray">\PersistentObject</text>
</g>
<!-- \\Geometry&#45;&gt;\\PersistentObject -->
<g id="edge23" class="edge"><title>\\Geometry&#45;&gt;\\PersistentObject</title>
<path fill="none" stroke="black" d="M262.124,-2158.89C259.06,-2156.61 256.271,-2153.99 254,-2151 155.09,-2020.56 107.394,-1484.63 97.1418,-1354.55"/>
<polygon fill="none" stroke="black" points="100.604,-1353.92 96.3405,-1344.23 93.6253,-1354.47 100.604,-1353.92"/>
</g>
<!-- \\GeometryCollection -->
<g id="node19" class="node"><title>\\GeometryCollection</title>
<a xlink:href="db_core_basic_yuppgis.core.basic.GeometryCollection.class.html" xlink:title="GeometryCollection" target="_parent">
<polygon fill="none" stroke="black" points="581,-2191 443,-2191 443,-2155 581,-2155 581,-2191"/>
<text text-anchor="middle" x="512" y="-2170.1" font-family="Courier New" font-size="11.00">GeometryCollection</text>
</a>
</g>
<!-- \\GeometryCollection&#45;&gt;\\Geometry -->
<g id="edge25" class="edge"><title>\\GeometryCollection&#45;&gt;\\Geometry</title>
<path fill="none" stroke="black" d="M442.816,-2173C410.406,-2173 372.683,-2173 343.865,-2173"/>
<polygon fill="none" stroke="black" points="343.677,-2169.5 333.677,-2173 343.677,-2176.5 343.677,-2169.5"/>
</g>
<!-- \\Curve&#45;&gt;\\Geometry -->
<g id="edge27" class="edge"><title>\\Curve&#45;&gt;\\Geometry</title>
<path fill="none" stroke="black" d="M469.465,-2124.12C433.143,-2134.48 381.02,-2149.34 343.792,-2159.95"/>
<polygon fill="none" stroke="black" points="342.37,-2156.71 333.712,-2162.82 344.289,-2163.44 342.37,-2156.71"/>
</g>
<!-- \\LineRing -->
<g id="node21" class="node"><title>\\LineRing</title>
<a xlink:href="db_core_basic_yuppgis.core.basic.LineRing.class.html" xlink:title="LineRing" target="_parent">
<polygon fill="none" stroke="black" points="1106,-2070 1036,-2070 1036,-2034 1106,-2034 1106,-2070"/>
<text text-anchor="middle" x="1071" y="-2049.1" font-family="Courier New" font-size="11.00">LineRing</text>
</a>
</g>
<!-- \\LineRing&#45;&gt;\\LineString -->
<g id="edge29" class="edge"><title>\\LineRing&#45;&gt;\\LineString</title>
<path fill="none" stroke="black" d="M1035.26,-2059.34C990.094,-2068.61 912.019,-2084.64 860.188,-2095.28"/>
<polygon fill="none" stroke="black" points="859.28,-2091.9 850.189,-2097.34 860.688,-2098.75 859.28,-2091.9"/>
</g>
<!-- \\MultiSurface -->
<g id="node22" class="node"><title>\\MultiSurface</title>
<a xlink:href="db_core_basic_yuppgis.core.basic.MultiSurface.class.html" xlink:title="«abstract»&lt;br/&gt;MultiSurface" target="_parent">
<polygon fill="none" stroke="black" points="857,-2232 759,-2232 759,-2196 857,-2196 857,-2232"/>
<text text-anchor="start" x="774" y="-2219.43" font-family="Courier New" font-size="11.00">«abstract»</text>
<text text-anchor="start" x="767" y="-2206.23" font-family="Courier New" font-size="11.00">MultiSurface</text>
</a>
</g>
<!-- \\MultiSurface&#45;&gt;\\GeometryCollection -->
<g id="edge31" class="edge"><title>\\MultiSurface&#45;&gt;\\GeometryCollection</title>
<path fill="none" stroke="black" d="M758.456,-2207.14C712.845,-2200.82 644.402,-2191.34 591.208,-2183.97"/>
<polygon fill="none" stroke="black" points="591.509,-2180.48 581.123,-2182.57 590.548,-2187.41 591.509,-2180.48"/>
</g>
<!-- \\MultiPoint -->
<g id="node23" class="node"><title>\\MultiPoint</title>
<a xlink:href="db_core_basic_yuppgis.core.basic.MultiPoint.class.html" xlink:title="MultiPoint" target="_parent">
<polygon fill="none" stroke="black" points="850,-2286 766,-2286 766,-2250 850,-2250 850,-2286"/>
<text text-anchor="middle" x="808" y="-2265.1" font-family="Courier New" font-size="11.00">MultiPoint</text>
</a>
</g>
<!-- \\MultiPoint&#45;&gt;\\GeometryCollection -->
<g id="edge33" class="edge"><title>\\MultiPoint&#45;&gt;\\GeometryCollection</title>
<path fill="none" stroke="black" d="M765.88,-2261.46C742.957,-2257.14 714.381,-2250.49 690,-2241 655.685,-2227.64 652.149,-2213.78 618,-2200 609.308,-2196.49 600.028,-2193.33 590.709,-2190.52"/>
<polygon fill="none" stroke="black" points="591.586,-2187.13 581.007,-2187.71 589.64,-2193.85 591.586,-2187.13"/>
</g>
<!-- \\MultiPolygon -->
<g id="node24" class="node"><title>\\MultiPolygon</title>
<a xlink:href="db_core_basic_yuppgis.core.basic.MultiPolygon.class.html" xlink:title="MultiPolygon" target="_parent">
<polygon fill="none" stroke="black" points="1120,-2286 1022,-2286 1022,-2250 1120,-2250 1120,-2286"/>
<text text-anchor="middle" x="1071" y="-2265.1" font-family="Courier New" font-size="11.00">MultiPolygon</text>
</a>
</g>
<!-- \\MultiPolygon&#45;&gt;\\MultiSurface -->
<g id="edge35" class="edge"><title>\\MultiPolygon&#45;&gt;\\MultiSurface</title>
<path fill="none" stroke="black" d="M1021.84,-2257.91C978.209,-2248.95 914.341,-2235.83 867.769,-2226.27"/>
<polygon fill="none" stroke="black" points="868.312,-2222.81 857.812,-2224.23 866.904,-2229.67 868.312,-2222.81"/>
</g>
<!-- \\Map -->
<g id="node25" class="node"><title>\\Map</title>
<a xlink:href="db_core_basic_yuppgis.core.basic.Map.class.html" xlink:title="Map" target="_parent">
<polygon fill="none" stroke="black" points="1098,-1530 1044,-1530 1044,-1494 1098,-1494 1098,-1530"/>
<text text-anchor="middle" x="1071" y="-1509.1" font-family="Courier New" font-size="11.00">Map</text>
</a>
</g>
<!-- \\Map&#45;&gt;\\PersistentObject -->
<g id="edge37" class="edge"><title>\\Map&#45;&gt;\\PersistentObject</title>
<path fill="none" stroke="black" d="M1043.72,-1509.19C1027.75,-1506.02 1008.68,-1499.29 998,-1485 854.309,-1292.66 1087.7,-584.473 926,-407 890.224,-367.734 850.286,-420.151 808,-388"/>
</g>
<!-- \\Observer -->
<g id="node26" class="node"><title>\\Observer</title>
<a xlink:href="db_core_basic_yuppgis.core.basic.Observer.class.html" xlink:title="Observer" target="_parent">
<polygon fill="none" stroke="black" points="1106,-1908 1036,-1908 1036,-1872 1106,-1872 1106,-1908"/>
<text text-anchor="middle" x="1071" y="-1887.1" font-family="Courier New" font-size="11.00">Observer</text>
</a>
</g>
<!-- \\Line -->
<g id="node27" class="node"><title>\\Line</title>
<a xlink:href="db_core_basic_yuppgis.core.basic.Line.class.html" xlink:title="Line" target="_parent">
<polygon fill="none" stroke="black" points="1098,-2124 1044,-2124 1044,-2088 1098,-2088 1098,-2124"/>
<text text-anchor="middle" x="1071" y="-2103.1" font-family="Courier New" font-size="11.00">Line</text>
</a>
</g>
<!-- \\Line&#45;&gt;\\LineString -->
<g id="edge39" class="edge"><title>\\Line&#45;&gt;\\LineString</title>
<path fill="none" stroke="black" d="M1043.84,-2106C1000.69,-2106 915.696,-2106 860.398,-2106"/>
<polygon fill="none" stroke="black" points="860.096,-2102.5 850.096,-2106 860.096,-2109.5 860.096,-2102.5"/>
</g>
<!-- \\Tag -->
<g id="node28" class="node"><title>\\Tag</title>
<a xlink:href="db_core_basic_yuppgis.core.basic.Tag.class.html" xlink:title="Tag" target="_parent">
<polygon fill="none" stroke="black" points="1098,-1368 1044,-1368 1044,-1332 1098,-1332 1098,-1368"/>
<text text-anchor="middle" x="1071" y="-1347.1" font-family="Courier New" font-size="11.00">Tag</text>
</a>
</g>
<!-- \\Tag&#45;&gt;\\PersistentObject -->
<g id="edge41" class="edge"><title>\\Tag&#45;&gt;\\PersistentObject</title>
<path fill="none" stroke="black" d="M1043.78,-1347.15C1027.83,-1343.96 1008.76,-1337.23 998,-1323 874.84,-1160.14 1064.4,-557.121 926,-407 889.994,-367.945 849.903,-420.648 808,-388"/>
<path fill="none" stroke="black" d="M808,-388C772.726,-360.517 448.435,-392.899 406,-407 351.019,-425.269 339.948,-440.037 298,-480"/>
<path fill="none" stroke="black" d="M298,-480C173.818,-596.444 110.936,-1163.74 97.683,-1297.64"/>
<polygon fill="none" stroke="black" points="94.1711,-1297.59 96.6826,-1307.89 101.138,-1298.27 94.1711,-1297.59"/>
</g>
<!-- \\MultiLineString -->
<g id="node29" class="node"><title>\\MultiLineString</title>
<a xlink:href="db_core_basic_yuppgis.core.basic.MultiLineString.class.html" xlink:title="MultiLineString" target="_parent">
<polygon fill="none" stroke="black" points="1130,-2178 1012,-2178 1012,-2142 1130,-2142 1130,-2178"/>
<text text-anchor="middle" x="1071" y="-2157.1" font-family="Courier New" font-size="11.00">MultiLineString</text>
</a>
</g>
<!-- \\MultiCurve -->
<g id="node30" class="node"><title>\\MultiCurve</title>
<a xlink:href="db_core_basic_yuppgis.core.basic.MultiCurve.class.html" xlink:title="«abstract»&lt;br/&gt;MultiCurve" target="_parent">
<polygon fill="none" stroke="black" points="850,-2178 766,-2178 766,-2142 850,-2142 850,-2178"/>
<text text-anchor="start" x="774" y="-2165.43" font-family="Courier New" font-size="11.00">«abstract»</text>
<text text-anchor="start" x="774" y="-2152.23" font-family="Courier New" font-size="11.00">MultiCurve</text>
</a>
</g>
<!-- \\MultiLineString&#45;&gt;\\MultiCurve -->
<g id="edge43" class="edge"><title>\\MultiLineString&#45;&gt;\\MultiCurve</title>
<path fill="none" stroke="black" d="M1011.98,-2160C966.691,-2160 904.726,-2160 861.011,-2160"/>
<polygon fill="none" stroke="black" points="860.867,-2156.5 850.867,-2160 860.867,-2163.5 860.867,-2156.5"/>
</g>
<!-- \\MultiCurve&#45;&gt;\\GeometryCollection -->
<g id="edge45" class="edge"><title>\\MultiCurve&#45;&gt;\\GeometryCollection</title>
<path fill="none" stroke="black" d="M765.275,-2161.88C719.909,-2163.87 647.179,-2167.06 591.271,-2169.52"/>
<polygon fill="none" stroke="black" points="590.874,-2166.03 581.038,-2169.97 591.182,-2173.03 590.874,-2166.03"/>
</g>
<!-- \\Observable&#45;&gt;\\PersistentObject -->
<g id="edge47" class="edge"><title>\\Observable&#45;&gt;\\PersistentObject</title>
<path fill="none" stroke="black" d="M784.748,-1925.95C756.523,-1902.48 710.199,-1858.59 690,-1809 635.465,-1675.13 718.25,-614.145 618,-510 593.234,-484.272 323.55,-455.05 298,-480"/>
</g>
<!-- \\GISLayoutManager -->
<g id="node32" class="node"><title>\\GISLayoutManager</title>
<a xlink:href="db_core_layout_yuppgis.core.layout.GISLayoutManager.class.html" xlink:title="GISLayoutManager" target="_parent">
<polygon fill="none" stroke="black" points="1133,-1692 1009,-1692 1009,-1656 1133,-1656 1133,-1692"/>
<text text-anchor="middle" x="1071" y="-1671.1" font-family="Courier New" font-size="11.00">GISLayoutManager</text>
</a>
</g>
<!-- \\GISController -->
<g id="node33" class="node"><title>\\GISController</title>
<a xlink:href="db_core_mvc_yuppgis.core.mvc.GISController.class.html" xlink:title="GISController" target="_parent">
<polygon fill="none" stroke="black" points="1123,-1152 1019,-1152 1019,-1116 1123,-1116 1123,-1152"/>
<text text-anchor="middle" x="1071" y="-1131.1" font-family="Courier New" font-size="11.00">GISController</text>
</a>
</g>
<!-- \\YuppController -->
<g id="node83" class="node"><title>\\YuppController</title>
<ellipse fill="none" stroke="black" cx="808" cy="-342" rx="86.9741" ry="18.3848"/>
<text text-anchor="middle" x="808" y="-338.4" font-family="Times Roman,serif" font-size="14.00" fill="gray">\YuppController</text>
</g>
<!-- \\GISController&#45;&gt;\\YuppController -->
<g id="edge49" class="edge"><title>\\GISController&#45;&gt;\\YuppController</title>
<path fill="none" stroke="black" d="M1018.69,-1122.95C1010.71,-1119.12 1003.37,-1113.95 998,-1107 898.009,-977.422 1031.68,-498.978 926,-374 918.183,-364.756 907.993,-358.043 896.875,-353.192"/>
<polygon fill="none" stroke="black" points="897.939,-349.851 887.349,-349.54 895.433,-356.388 897.939,-349.851"/>
</g>
<!-- \\GISPersistentManager -->
<g id="node34" class="node"><title>\\GISPersistentManager</title>
<a xlink:href="db_core_persistent_yuppgis.core.persistent.GISPersistentManager.class.html" xlink:title="«abstract»&lt;br/&gt;GISPersistentManager" target="_parent">
<polygon fill="none" stroke="black" points="884,-1800 732,-1800 732,-1764 884,-1764 884,-1800"/>
<text text-anchor="start" x="774" y="-1787.43" font-family="Courier New" font-size="11.00">«abstract»</text>
<text text-anchor="start" x="740" y="-1774.23" font-family="Courier New" font-size="11.00">GISPersistentManager</text>
</a>
</g>
<!-- \\PersistentManager -->
<g id="node85" class="node"><title>\\PersistentManager</title>
<ellipse fill="none" stroke="black" cx="512" cy="-434" rx="106.066" ry="18.3848"/>
<text text-anchor="middle" x="512" y="-430.4" font-family="Times Roman,serif" font-size="14.00" fill="gray">\PersistentManager</text>
</g>
<!-- \\GISPersistentManager&#45;&gt;\\PersistentManager -->
<g id="edge51" class="edge"><title>\\GISPersistentManager&#45;&gt;\\PersistentManager</title>
<path fill="none" stroke="black" d="M731.214,-1779.08C715.461,-1774.83 700.503,-1767.45 690,-1755 504.998,-1535.73 795.413,-691.457 618,-466 613.219,-459.924 607.324,-454.968 600.783,-450.929"/>
<polygon fill="none" stroke="black" points="601.976,-447.598 591.507,-445.971 598.676,-453.771 601.976,-447.598"/>
</g>
<!-- \\GISPMBasic -->
<g id="node35" class="node"><title>\\GISPMBasic</title>
<a xlink:href="db_core_persistent_yuppgis.core.persistent.GISPMBasic.class.html" xlink:title="GISPMBasic" target="_parent">
<polygon fill="none" stroke="black" points="1113,-1854 1029,-1854 1029,-1818 1113,-1818 1113,-1854"/>
<text text-anchor="middle" x="1071" y="-1833.1" font-family="Courier New" font-size="11.00">GISPMBasic</text>
</a>
</g>
<!-- \\GISPMBasic&#45;&gt;\\GISPersistentManager -->
<g id="edge53" class="edge"><title>\\GISPMBasic&#45;&gt;\\GISPersistentManager</title>
<path fill="none" stroke="black" d="M1028.74,-1827.32C992.701,-1819.92 939.721,-1809.05 894.699,-1799.8"/>
<polygon fill="none" stroke="black" points="895.131,-1796.32 884.631,-1797.73 893.723,-1803.17 895.131,-1796.32"/>
</g>
<!-- \\GISPersistentObject -->
<g id="node36" class="node"><title>\\GISPersistentObject</title>
<a xlink:href="db_core_persistent_yuppgis.core.persistent.GISPersistentObject.class.html" xlink:title="GISPersistentObject" target="_parent">
<polygon fill="none" stroke="black" points="1143,-1962 999,-1962 999,-1926 1143,-1926 1143,-1962"/>
<text text-anchor="middle" x="1071" y="-1941.1" font-family="Courier New" font-size="11.00">GISPersistentObject</text>
</a>
</g>
<!-- \\GISPersistentObject&#45;&gt;\\Observable -->
<g id="edge55" class="edge"><title>\\GISPersistentObject&#45;&gt;\\Observable</title>
<path fill="none" stroke="black" d="M998.438,-1944C954.892,-1944 900.473,-1944 860.972,-1944"/>
<polygon fill="none" stroke="black" points="860.758,-1940.5 850.758,-1944 860.758,-1947.5 860.758,-1940.5"/>
</g>
<!-- \\KMLGEO -->
<g id="node37" class="node"><title>\\KMLGEO</title>
<a xlink:href="db_core_persistent_serialize_yuppgis.core.persistent.serialize.KMLGEO.class.html" xlink:title="KMLGEO" target="_parent">
<polygon fill="none" stroke="black" points="1099,-1476 1043,-1476 1043,-1440 1099,-1440 1099,-1476"/>
<text text-anchor="middle" x="1071" y="-1455.1" font-family="Courier New" font-size="11.00">KMLGEO</text>
</a>
</g>
<!-- \\WKTGEO -->
<g id="node38" class="node"><title>\\WKTGEO</title>
<a xlink:href="db_core_persistent_serialize_yuppgis.core.persistent.serialize.WKTGEO.class.html" xlink:title="WKTGEO" target="_parent">
<polygon fill="none" stroke="black" points="1099,-1422 1043,-1422 1043,-1386 1099,-1386 1099,-1422"/>
<text text-anchor="middle" x="1071" y="-1401.1" font-family="Courier New" font-size="11.00">WKTGEO</text>
</a>
</g>
<!-- \\GISPMPremium -->
<g id="node39" class="node"><title>\\GISPMPremium</title>
<a xlink:href="db_core_persistent_yuppgis.core.persistent.GISPMPremium.class.html" xlink:title="GISPMPremium" target="_parent">
<polygon fill="none" stroke="black" points="1120,-1800 1022,-1800 1022,-1764 1120,-1764 1120,-1800"/>
<text text-anchor="middle" x="1071" y="-1779.1" font-family="Courier New" font-size="11.00">GISPMPremium</text>
</a>
</g>
<!-- \\GISPMPremium&#45;&gt;\\GISPersistentManager -->
<g id="edge57" class="edge"><title>\\GISPMPremium&#45;&gt;\\GISPersistentManager</title>
<path fill="none" stroke="black" d="M1021.84,-1782C986.122,-1782 936.843,-1782 894.593,-1782"/>
<polygon fill="none" stroke="black" points="894.577,-1778.5 884.577,-1782 894.577,-1785.5 894.577,-1778.5"/>
</g>
<!-- \\GISQueryProcessor -->
<g id="node40" class="node"><title>\\GISQueryProcessor</title>
<a xlink:href="db_core_persistent_yuppgis.core.persistent.GISQueryProcessor.class.html" xlink:title="GISQueryProcessor" target="_parent">
<polygon fill="none" stroke="black" points="1136,-1314 1006,-1314 1006,-1278 1136,-1278 1136,-1314"/>
<text text-anchor="middle" x="1071" y="-1293.1" font-family="Courier New" font-size="11.00">GISQueryProcessor</text>
</a>
</g>
<!-- \\ProcessedSelects -->
<g id="node41" class="node"><title>\\ProcessedSelects</title>
<a xlink:href="db_core_persistent_yuppgis.core.persistent.GISQueryProcessor.class.html" xlink:title="ProcessedSelects" target="_parent">
<polygon fill="none" stroke="black" points="1133,-1260 1009,-1260 1009,-1224 1133,-1224 1133,-1260"/>
<text text-anchor="middle" x="1071" y="-1239.1" font-family="Courier New" font-size="11.00">ProcessedSelects</text>
</a>
</g>
<!-- \\Reference -->
<g id="node42" class="node"><title>\\Reference</title>
<a xlink:href="db_core_persistent_yuppgis.core.persistent.GISQueryProcessor.class.html" xlink:title="Reference" target="_parent">
<polygon fill="none" stroke="black" points="1109,-1206 1033,-1206 1033,-1170 1109,-1170 1109,-1206"/>
<text text-anchor="middle" x="1071" y="-1185.1" font-family="Courier New" font-size="11.00">Reference</text>
</a>
</g>
<!-- \\RestGISWSDAL -->
<g id="node43" class="node"><title>\\RestGISWSDAL</title>
<a xlink:href="db_core_services_yuppgis.core.services.RestGISWSDAL.class.html" xlink:title="RestGISWSDAL" target="_parent">
<polygon fill="none" stroke="black" points="1120,-1746 1022,-1746 1022,-1710 1120,-1710 1120,-1746"/>
<text text-anchor="middle" x="1071" y="-1725.1" font-family="Courier New" font-size="11.00">RestGISWSDAL</text>
</a>
</g>
<!-- \\GISWSDAL -->
<g id="node44" class="node"><title>\\GISWSDAL</title>
<a xlink:href="db_core_services_yuppgis.core.services.GISWSDAL.class.html" xlink:title="GISWSDAL" target="_parent">
<polygon fill="none" stroke="black" points="843,-1746 773,-1746 773,-1710 843,-1710 843,-1746"/>
<text text-anchor="middle" x="808" y="-1725.1" font-family="Courier New" font-size="11.00">GISWSDAL</text>
</a>
</g>
<!-- \\RestGISWSDAL&#45;&gt;\\GISWSDAL -->
<g id="edge75" class="edge"><title>\\RestGISWSDAL&#45;&gt;\\GISWSDAL</title>
<path fill="none" stroke="black" stroke-dasharray="1,5" d="M1021.84,-1728C973.739,-1728 901.043,-1728 854.041,-1728"/>
<polygon fill="none" stroke="black" points="853.84,-1724.5 843.839,-1728 853.839,-1731.5 853.84,-1724.5"/>
</g>
<!-- \\GISDatatypes -->
<g id="node45" class="node"><title>\\GISDatatypes</title>
<a xlink:href="db_core_db_yuppgis.core.db.GISDatatypes.class.html" xlink:title="GISDatatypes" target="_parent">
<polygon fill="none" stroke="black" points="1120,-1098 1022,-1098 1022,-1062 1120,-1062 1120,-1098"/>
<text text-anchor="middle" x="1071" y="-1077.1" font-family="Courier New" font-size="11.00">GISDatatypes</text>
</a>
</g>
<!-- \\DatabasePostgisSQL -->
<g id="node46" class="node"><title>\\DatabasePostgisSQL</title>
<a xlink:href="db_core_db_yuppgis.core.db.DatabasePostgisSQL.class.html" xlink:title="DatabasePostgisSQL" target="_parent">
<polygon fill="none" stroke="black" points="1140,-1044 1002,-1044 1002,-1008 1140,-1008 1140,-1044"/>
<text text-anchor="middle" x="1071" y="-1023.1" font-family="Courier New" font-size="11.00">DatabasePostgisSQL</text>
</a>
</g>
<!-- \\DatabasePostgreSQL -->
<g id="node90" class="node"><title>\\DatabasePostgreSQL</title>
<ellipse fill="none" stroke="black" cx="808" cy="-288" rx="118.087" ry="18.3848"/>
<text text-anchor="middle" x="808" y="-284.4" font-family="Times Roman,serif" font-size="14.00" fill="gray">\DatabasePostgreSQL</text>
</g>
<!-- \\DatabasePostgisSQL&#45;&gt;\\DatabasePostgreSQL -->
<g id="edge59" class="edge"><title>\\DatabasePostgisSQL&#45;&gt;\\DatabasePostgreSQL</title>
<path fill="none" stroke="black" d="M1006.91,-1007.76C1003.59,-1005.21 1000.57,-1002.31 998,-999 810.412,-757.648 1128.79,-543.727 926,-315 922.122,-310.626 917.695,-306.885 912.882,-303.689"/>
<polygon fill="none" stroke="black" points="914.256,-300.442 903.839,-298.507 910.775,-306.516 914.256,-300.442"/>
</g>
<!-- \\GISDAL -->
<g id="node47" class="node"><title>\\GISDAL</title>
<a xlink:href="db_core_db_yuppgis.core.db.GISDAL.class.html" xlink:title="GISDAL" target="_parent">
<polygon fill="none" stroke="black" points="1099,-990 1043,-990 1043,-954 1099,-954 1099,-990"/>
<text text-anchor="middle" x="1071" y="-969.1" font-family="Courier New" font-size="11.00">GISDAL</text>
</a>
</g>
<!-- \\DAL -->
<g id="node92" class="node"><title>\\DAL</title>
<ellipse fill="none" stroke="black" cx="808" cy="-234" rx="34.8574" ry="18.3848"/>
<text text-anchor="middle" x="808" y="-230.4" font-family="Times Roman,serif" font-size="14.00" fill="gray">\DAL</text>
</g>
<!-- \\GISDAL&#45;&gt;\\DAL -->
<g id="edge61" class="edge"><title>\\GISDAL&#45;&gt;\\DAL</title>
<path fill="none" stroke="black" d="M1042.46,-968.742C1026.86,-965.406 1008.61,-958.656 998,-945 810.412,-703.648 1128.79,-489.727 926,-261 908.11,-240.822 878.507,-234.088 853.428,-232.391"/>
<polygon fill="none" stroke="black" points="853.504,-228.891 843.362,-231.955 853.201,-235.885 853.504,-228.891"/>
</g>
<!-- \\SelectValue -->
<g id="node48" class="node"><title>\\SelectValue</title>
<a xlink:href="db_core_db_criteria2_yuppgis.core.db.criteria2.SelectValue.class.html" xlink:title="SelectValue" target="_parent">
<polygon fill="none" stroke="black" points="1116,-936 1026,-936 1026,-900 1116,-900 1116,-936"/>
<text text-anchor="middle" x="1071" y="-915.1" font-family="Courier New" font-size="11.00">SelectValue</text>
</a>
</g>
<!-- \\SelectItem -->
<g id="node94" class="node"><title>\\SelectItem</title>
<ellipse fill="none" stroke="black" cx="808" cy="-180" rx="67.1751" ry="18.3848"/>
<text text-anchor="middle" x="808" y="-176.4" font-family="Times Roman,serif" font-size="14.00" fill="gray">\SelectItem</text>
</g>
<!-- \\SelectValue&#45;&gt;\\SelectItem -->
<g id="edge63" class="edge"><title>\\SelectValue&#45;&gt;\\SelectItem</title>
<path fill="none" stroke="black" d="M1025.47,-909.806C1014.98,-905.807 1004.88,-899.855 998,-891 810.412,-649.648 1128.79,-435.727 926,-207 915.32,-194.954 900.467,-187.7 884.893,-183.448"/>
<polygon fill="none" stroke="black" points="885.668,-180.035 875.134,-181.173 884.078,-186.852 885.668,-180.035"/>
</g>
<!-- \\GISQuery -->
<g id="node49" class="node"><title>\\GISQuery</title>
<a xlink:href="db_core_db_criteria2_yuppgis.core.db.criteria2.GISQuery.class.html" xlink:title="GISQuery" target="_parent">
<polygon fill="none" stroke="black" points="1106,-828 1036,-828 1036,-792 1106,-792 1106,-828"/>
<text text-anchor="middle" x="1071" y="-807.1" font-family="Courier New" font-size="11.00">GISQuery</text>
</a>
</g>
<!-- \\Query -->
<g id="node96" class="node"><title>\\Query</title>
<ellipse fill="none" stroke="black" cx="808" cy="-126" rx="44.7575" ry="18.3848"/>
<text text-anchor="middle" x="808" y="-122.4" font-family="Times Roman,serif" font-size="14.00" fill="gray">\Query</text>
</g>
<!-- \\GISQuery&#45;&gt;\\Query -->
<g id="edge65" class="edge"><title>\\GISQuery&#45;&gt;\\Query</title>
<path fill="none" stroke="black" d="M1035.42,-804.98C1021.67,-801.204 1007.09,-794.589 998,-783 824.062,-561.258 1113.9,-363.04 926,-153 910.447,-135.614 886.197,-128.229 863.716,-125.441"/>
<polygon fill="none" stroke="black" points="863.838,-121.937 853.549,-124.464 863.168,-128.904 863.838,-121.937"/>
</g>
<!-- \\GISFunction -->
<g id="node50" class="node"><title>\\GISFunction</title>
<a xlink:href="db_core_db_criteria2_yuppgis.core.db.criteria2.GISFunction.class.html" xlink:title="GISFunction" target="_parent">
<polygon fill="none" stroke="black" points="1116,-882 1026,-882 1026,-846 1116,-846 1116,-882"/>
<text text-anchor="middle" x="1071" y="-861.1" font-family="Courier New" font-size="11.00">GISFunction</text>
</a>
</g>
<!-- \\GISFunction&#45;&gt;\\SelectItem -->
<g id="edge67" class="edge"><title>\\GISFunction&#45;&gt;\\SelectItem</title>
<path fill="none" stroke="black" d="M1025.15,-855.619C1014.79,-851.622 1004.84,-845.718 998,-837 824.062,-615.258 1113.9,-417.04 926,-207 915.267,-195.002 900.392,-187.767 884.814,-183.518"/>
<polygon fill="none" stroke="black" points="885.589,-180.105 875.055,-181.243 883.999,-186.922 885.589,-180.105"/>
</g>
<!-- \\GISCondition -->
<g id="node51" class="node"><title>\\GISCondition</title>
<a xlink:href="db_core_db_criteria2_yuppgis.core.db.criteria2.GISCondition.class.html" xlink:title="GISCondition" target="_parent">
<polygon fill="none" stroke="black" points="1120,-774 1022,-774 1022,-738 1120,-738 1120,-774"/>
<text text-anchor="middle" x="1071" y="-753.1" font-family="Courier New" font-size="11.00">GISCondition</text>
</a>
</g>
<!-- \\Condition -->
<g id="node99" class="node"><title>\\Condition</title>
<ellipse fill="none" stroke="black" cx="808" cy="-72" rx="61.0181" ry="18.3848"/>
<text text-anchor="middle" x="808" y="-68.4" font-family="Times Roman,serif" font-size="14.00" fill="gray">\Condition</text>
</g>
<!-- \\GISCondition&#45;&gt;\\Condition -->
<g id="edge69" class="edge"><title>\\GISCondition&#45;&gt;\\Condition</title>
<path fill="none" stroke="black" d="M1021.76,-746.233C1012.64,-742.292 1004.09,-736.761 998,-729 824.062,-507.258 1113.9,-309.04 926,-99 914.111,-85.7105 897.141,-78.2644 879.763,-74.2479"/>
<polygon fill="none" stroke="black" points="880.004,-70.7294 869.52,-72.2612 878.671,-77.6013 880.004,-70.7294"/>
</g>
<!-- \\SelectGIS -->
<g id="node52" class="node"><title>\\SelectGIS</title>
<a xlink:href="db_core_db_criteria2_yuppgis.core.db.criteria2.SelectGIS.class.html" xlink:title="SelectGIS" target="_parent">
<polygon fill="none" stroke="black" points="1109,-720 1033,-720 1033,-684 1109,-684 1109,-720"/>
<text text-anchor="middle" x="1071" y="-699.1" font-family="Courier New" font-size="11.00">SelectGIS</text>
</a>
</g>
<!-- \\SelectAttribute -->
<g id="node101" class="node"><title>\\SelectAttribute</title>
<ellipse fill="none" stroke="black" cx="808" cy="-18" rx="89.0955" ry="18.3848"/>
<text text-anchor="middle" x="808" y="-14.4" font-family="Times Roman,serif" font-size="14.00" fill="gray">\SelectAttribute</text>
</g>
<!-- \\SelectGIS&#45;&gt;\\SelectAttribute -->
<g id="edge71" class="edge"><title>\\SelectGIS&#45;&gt;\\SelectAttribute</title>
<path fill="none" stroke="black" d="M1032.39,-696.102C1019.56,-692.206 1006.42,-685.738 998,-675 824.062,-453.258 1113.9,-255.04 926,-45 919.274,-37.4819 910.922,-31.8339 901.79,-27.6189"/>
<polygon fill="none" stroke="black" points="903.014,-24.3387 892.43,-23.8655 900.409,-30.8359 903.014,-24.3387"/>
</g>
<!-- \\SelectGISAttribute -->
<g id="node53" class="node"><title>\\SelectGISAttribute</title>
<a xlink:href="db_core_db_criteria2_yuppgis.core.db.criteria2.SelectGISAttribute.class.html" xlink:title="SelectGISAttribute" target="_parent">
<polygon fill="none" stroke="black" points="1140,-666 1002,-666 1002,-630 1140,-630 1140,-666"/>
<text text-anchor="middle" x="1071" y="-645.1" font-family="Courier New" font-size="11.00">SelectGISAttribute</text>
</a>
</g>
<!-- \\SelectGISAttribute&#45;&gt;\\SelectAttribute -->
<g id="edge73" class="edge"><title>\\SelectGISAttribute&#45;&gt;\\SelectAttribute</title>
<path fill="none" stroke="black" d="M1007.31,-629.942C1003.84,-627.351 1000.69,-624.388 998,-621 837.7,-418.852 1099.03,-236.368 926,-45 919.235,-37.5175 910.858,-31.8917 901.712,-27.6895"/>
<polygon fill="none" stroke="black" points="902.925,-24.4054 892.341,-23.9457 900.328,-30.9058 902.925,-24.4054"/>
</g>
<!-- \\ReflectionUtils -->
<g id="node54" class="node"><title>\\ReflectionUtils</title>
<a xlink:href="db_core_utils_yuppgis.core.utils.ReflectionUtils.class.html" xlink:title="ReflectionUtils" target="_parent">
<polygon fill="none" stroke="black" points="1130,-612 1012,-612 1012,-576 1130,-576 1130,-612"/>
<text text-anchor="middle" x="1071" y="-591.1" font-family="Courier New" font-size="11.00">ReflectionUtils</text>
</a>
</g>
<!-- \\XMLUtils -->
<g id="node55" class="node"><title>\\XMLUtils</title>
<a xlink:href="db_core_utils_yuppgis.core.utils.XMLUtils.class.html" xlink:title="XMLUtils" target="_parent">
<polygon fill="none" stroke="black" points="1106,-558 1036,-558 1036,-522 1106,-522 1106,-558"/>
<text text-anchor="middle" x="1071" y="-537.1" font-family="Courier New" font-size="11.00">XMLUtils</text>
</a>
</g>
</g>
</svg>
